<?xml version="1.0" encoding="UTF-8"?>
<svg id="Layer_2" xmlns="http://www.w3.org/2000/svg" viewBox="0 0 102.76 43.19">
  <defs>
    <style>
      .cls-1 {
        fill: #ef4857;
      }
    </style>
  </defs>
  <g id="Layer_1-2" data-name="Layer_1">
    <g>
      <path class="cls-1" d="M8.7,8.78v14.72c0,4.22,2.37,7.89,5.85,9.75,1.55.83,3.33,1.3,5.21,1.3h14.35v-.2s-.04-.02-.06-.03l-.18-.84c-.37-1.38-1.95-6.57-7.19-10.2-5.35-3.7-10.88-3.26-12.28-3.11.57-.29,1.4-.67,2.44-1,3.42-1.09,6.31-.78,7.72-.61,8.93,1.06,15.18,8.26,16.46,10.47.81,1.4,1.83,4.55,1.88,4.77.03.12.05.22.06.3.03.21.03.33.03.37,0,.03,0,.05,0,.07,0,2.82,0,5.65,0,8.47-9.82.42-17.5,0-22.84,0-1.24,0-2.45-.11-3.62-.33C7.14,40.97,0,32.73,0,22.83V0h23.44C34.24,0,43,8.75,43,19.55v4.07c-1.38-1.26-2.98-2.47-4.77-3.58-1.41-.87-2.82-1.61-4.21-2.22-.66-5.1-5.02-9.04-10.3-9.04h-15.02Z"/>
      <g>
        <path class="cls-1" d="M75.5,29.42v13.57h-3.03v-10.28c-.25-.07-.29-.05-.36.17-.31,1.03-.61,2.05-.92,3.08-.45,1.52-.9,3.04-1.35,4.56-.23.78-.47,1.57-.7,2.35-.02.08-.06.12-.16.12-.94,0-1.88,0-2.81,0-.11,0-.12-.06-.15-.13-.31-1.07-.61-2.13-.92-3.2-.39-1.35-.79-2.71-1.18-4.06-.27-.92-.53-1.84-.79-2.76-.04-.14-.1-.19-.24-.17-.06,0-.11,0-.19,0v10.31c-.07,0-.13,0-.19,0-.89,0-1.78,0-2.67,0q-.2,0-.2-.19c0-4.13,0-8.26,0-12.4,0-.27,0-.55,0-.82,0-.12.02-.17.16-.17,1.62,0,3.24,0,4.87,0,.11,0,.15.03.18.13.43,1.49.85,2.99,1.28,4.48.42,1.45.83,2.9,1.24,4.35.03.1.06.14.16.13.06,0,.11,0,.18,0,.13-.44.25-.88.37-1.31.35-1.21.69-2.41,1.04-3.62.37-1.31.75-2.62,1.12-3.93.06-.22.06-.22.29-.22,1.58,0,3.17,0,4.75,0,.06,0,.11,0,.19,0Z"/>
        <path class="cls-1" d="M44.91,43c.08-.24.15-.46.22-.68.66-1.96,1.32-3.92,1.98-5.88.77-2.28,1.54-4.56,2.3-6.85.04-.13.1-.17.24-.17,1.28,0,2.56,0,3.83,0,.12,0,.16.03.2.14.63,1.87,1.26,3.74,1.89,5.61.77,2.29,1.54,4.58,2.3,6.86.1.29.19.57.28.86,0,.03,0,.06.02.11-.06,0-.11,0-.15,0-.99,0-1.99,0-2.98,0-.11,0-.15-.03-.18-.13-.26-.88-.53-1.77-.78-2.65-.04-.15-.1-.2-.26-.2-1.51,0-3.03,0-4.54,0-.14,0-.18.05-.22.17-.26.91-.54,1.81-.81,2.72-.03.1-.09.09-.17.09-.86,0-1.72,0-2.58,0-.19,0-.37,0-.58,0ZM49.81,37.63h3.49c-.15-.49-.29-.97-.43-1.45-.32-1.06-.63-2.12-.95-3.18-.09-.31-.1-.3-.43-.32-.17,0-.23.06-.27.21-.32,1.09-.64,2.18-.97,3.27-.15.49-.29.98-.44,1.47Z"/>
        <path class="cls-1" d="M98.91,33.41c-.32,0-.63,0-.94,0-.62,0-1.24,0-1.86,0-.11,0-.15-.03-.17-.15-.09-.56-.39-1-.91-1.22-.86-.37-1.74-.37-2.6.03-.63.3-.88,1.02-.6,1.63.14.31.41.49.69.64.48.25,1.01.35,1.53.48.64.16,1.29.3,1.91.49.8.25,1.54.64,2.13,1.25.65.66.95,1.46.98,2.38.02.64-.08,1.26-.36,1.84-.43.88-1.13,1.49-2.03,1.86-.85.36-1.75.51-2.67.53-.78.02-1.56-.05-2.32-.24-1.09-.27-2.04-.77-2.71-1.7-.41-.57-.64-1.2-.73-1.89-.03-.24-.05-.49-.07-.76.31,0,.6,0,.88,0,.65,0,1.3,0,1.95,0,.11,0,.14.02.15.14.08.78.48,1.34,1.2,1.63.86.34,1.75.36,2.62.02.46-.18.82-.49.94-.99.12-.5-.03-.92-.45-1.24-.38-.29-.83-.43-1.28-.55-.83-.22-1.67-.4-2.5-.64-.83-.23-1.59-.61-2.22-1.21-.49-.46-.77-1.03-.87-1.69-.12-.76-.06-1.5.25-2.21.28-.63.71-1.13,1.26-1.54.75-.57,1.61-.86,2.53-1,1.27-.19,2.52-.1,3.72.4,1.34.57,2.19,1.55,2.47,3,.04.19.04.39.06.58,0,.03,0,.06,0,.11Z"/>
        <path class="cls-1" d="M80.76,37.47v3h6.22v2.52h-9.29v-13.56h9.27v2.52h-6.2v2.99h5.01v2.53h-5.01Z"/>
      </g>
      <g>
        <rect class="cls-1" x="46.79" width="6.17" height="27.22"/>
        <path class="cls-1" d="M69.18,0h0C62.05,0,56.28,5.78,56.28,12.9v1.42c0,7.12,5.78,12.9,12.9,12.9h0c7.12,0,12.9-5.78,12.9-12.9v-1.42C82.08,5.78,76.3,0,69.18,0ZM75.78,15.52c0,3.65-2.96,6.61-6.61,6.61h0c-3.65,0-6.61-2.96-6.61-6.61v-3.8c0-3.65,2.96-6.61,6.61-6.61h0c3.65,0,6.61,2.96,6.61,6.61v3.8Z"/>
        <polygon class="cls-1" points="82.5 0 82.5 5.11 89.47 5.11 89.47 27.22 95.79 27.22 95.79 5.11 102.76 5.11 102.76 0 82.5 0"/>
      </g>
    </g>
  </g>
</svg>