<?xml version="1.0" encoding="UTF-8"?>
<svg id="Layer_2" xmlns="http://www.w3.org/2000/svg" viewBox="0 0 292.91 39.95">
  <defs>
    <style>
      .cls-1 {
        fill: #ef4857;
      }
    </style>
  </defs>
  <g id="Layer_1-2" data-name="Layer_1">
    <polygon class="cls-1" points="59.15 0 59.15 .17 58.94 0 59.15 0"/>
    <polygon class="cls-1" points="93.23 32.76 87.49 39.94 68.09 39.94 68.09 0 75.54 0 75.54 32.76 93.23 32.76"/>
    <polygon class="cls-1" points="178.25 39.94 168.74 39.94 166.72 37.37 163.11 32.76 159.47 28.12 154.79 22.15 159.59 16.14 166.72 7.2 166.72 7.19 149.5 7.19 149.5 39.95 142.05 39.95 142.05 0 174.17 0 174.17 9.7 166.72 19.04 164.27 22.11 166.72 25.24 172.62 32.76 174.17 34.74 178.25 39.94"/>
    <rect class="cls-1" x="166.72" width="7.45" height="0"/>
    <polygon class="cls-1" points="292.91 7.19 278.72 7.19 278.72 39.95 271.28 39.95 271.28 7.19 260.13 7.19 260.13 0 287.27 0 292.91 7.19"/>
    <path class="cls-1" d="M58.94,0h-7.24s-11.46,14.37-11.46,14.37l-4.33,5.43-10.34,12.96-5.72,7.18h9l5.72-7.18,5.8-7.27,11.33,14.45h7.45V.17l-.21-.17ZM51.7,28.98l-6.99-8.92,6.99-8.77v17.69Z"/>
    <path class="cls-1" d="M217.5,32.76l-9.93-12.67-4.42-5.64L191.83,0h-7.55v39.94h7.44l11.51-14.42,5.67,7.23,5.63,7.18h8.6l-5.63-7.18ZM191.72,28.79V10.84l7.09,9.05-7.09,8.9Z"/>
    <polygon class="cls-1" points="254.83 0 254.83 39.94 247.01 39.94 241.38 32.76 225.05 11.94 225.05 29.53 217.61 20.05 217.61 0 225.05 0 247.39 28.51 247.39 0 254.83 0"/>
    <path class="cls-1" d="M115.23,0c-11.03,0-19.97,8.93-19.97,19.97s8.94,19.97,19.97,19.97,19.97-8.94,19.97-19.97S126.27,0,115.23,0ZM115.23,33.06c-7.24,0-13.1-5.86-13.1-13.1s5.86-13.09,13.1-13.09,13.09,5.86,13.09,13.09-5.86,13.1-13.09,13.1Z"/>
    <path class="cls-1" d="M0,0v39.94h7.44v-17.83h14.22l6-7.52.82-1.02L39.3,0H0ZM7.44,14.59v-7.79h16.92l-6.21,7.79H7.44Z"/>
  </g>
</svg>